<?xml version="1.0" encoding="UTF-8"?>
<svg version="1.1" xmlns="http://www.w3.org/2000/svg" width="104" height="225">
<path d="M0 0 C6.91512176 0.38567705 11.31464363 1.74811043 17.125 5.4375 C17.85219238 5.88343506 18.57938477 6.32937012 19.32861328 6.78881836 C21.56599378 8.17218679 23.78472504 9.58155093 26 11 C26.67998047 11.43086914 27.35996094 11.86173828 28.06054688 12.30566406 C36.52161672 17.6926284 44.35978874 23.49167189 52 30 C53.22853464 30.97995954 54.45757766 31.9592827 55.6875 32.9375 C56.450625 33.618125 57.21375 34.29875 58 35 C58 35.66 58 36.32 58 37 C58.99 37.33 59.98 37.66 61 38 C82.63792743 60.76761842 92.58529763 87.25707707 92.20703125 118.3515625 C91.75897327 135.04790712 84.85942046 148.56489892 74 161 C72.87078125 162.45212891 72.87078125 162.45212891 71.71875 163.93359375 C68.79090565 167.44189186 65.37766052 169.98779852 61.625 172.5625 C60.58956055 173.27756714 60.58956055 173.27756714 59.53320312 174.00708008 C52.75411527 178.49183768 45.84456457 180.95996237 38 183 C40.5771398 185.5771398 43.57162295 186.87190709 46.8125 188.4375 C58.70621706 194.21657882 58.70621706 194.21657882 59.9375 197.5 C60 200 60 200 58 203 C51.02851335 202.63974161 45.80412957 199.60004233 39.75 196.3125 C38.77675781 195.79494141 37.80351563 195.27738281 36.80078125 194.74414062 C34.84331297 193.7004175 32.88949945 192.64981028 30.93945312 191.59228516 C28.93864116 190.50845661 26.93184811 189.43561347 24.91992188 188.37255859 C23.94087891 187.85129395 22.96183594 187.3300293 21.953125 186.79296875 C21.07301758 186.32785889 20.19291016 185.86274902 19.28613281 185.38354492 C17.16716012 184.10116365 15.6468404 182.8336129 14 181 C15.55984743 176.33818326 18.11713049 172.78746577 21 168.875 C21.89613779 167.64345064 22.79198177 166.41168744 23.6875 165.1796875 C24.450625 164.13039062 25.21375 163.08109375 26 162 C26.66 161.01 27.32 160.02 28 159 C28.66 159 29.32 159 30 159 C30.28875 158.236875 30.5775 157.47375 30.875 156.6875 C32 154 32 154 34 151 C34.66 151 35.32 151 36 151 C36.226875 150.360625 36.45375 149.72125 36.6875 149.0625 C38 147 38 147 40.4375 146.0625 C43 146 43 146 44.875 147.125 C46 149 46 149 45.75 151.5625 C45 154 45 154 44 156 C43.34 156 42.68 156 42 156 C41.731875 156.556875 41.46375 157.11375 41.1875 157.6875 C39.89100504 160.21225334 38.57523677 162.63714484 37 165 C36.34 165 35.68 165 35 165 C34.71125 165.5775 34.4225 166.155 34.125 166.75 C33.08333333 168.83333333 32.04166667 170.91666667 31 173 C43.37921927 172.38103904 53.70218184 167.07442104 63 159 C64.35827971 157.35360035 65.69254251 155.68704193 67 154 C67.680625 153.34 68.36125 152.68 69.0625 152 C80.80031347 139.88354739 82.44782209 121.55491596 82.2109375 105.59765625 C81.53437008 85.38833692 71.79953058 66.18324883 59 51 C58.36320312 50.18273438 57.72640625 49.36546875 57.0703125 48.5234375 C47.70981277 37.11422462 35.50166316 28.5934923 23 21 C22.12601563 20.45730469 21.25203125 19.91460938 20.3515625 19.35546875 C14.5588204 15.80296186 8.59527491 12.59236819 2.58984375 9.41796875 C-0 8 -0 8 -1 7 C-0.71269945 4.66055264 -0.38063221 2.3260857 0 0 Z " fill="#1C1C1C" transform="translate(5,11)"/>
<path d="M0 0 C0.33 0.99 0.66 1.98 1 3 C1.99 3.33 2.98 3.66 4 4 C7.73714274 7.82612233 9.87354488 10.43597482 10 16 C7.8614515 18.1385485 6.86724686 18.42655063 4 19 C3.62488281 18.55269531 3.24976562 18.10539062 2.86328125 17.64453125 C-0.81769045 13.29597778 -4.63848414 9.1986527 -8.8125 5.3125 C-10 4 -10 4 -10 2 C-9.34 2 -8.68 2 -8 2 C-8 1.34 -8 0.68 -8 0 C-5.13822943 -1.43088528 -3.06624227 -0.59991697 0 0 Z " fill="#161616" transform="translate(62,45)"/>
<path d="M0 0 C7.80801031 0.2518713 12.59128959 2.62495135 19 7 C18.34 7.66 17.68 8.32 17 9 C17 9.99 17 10.98 17 12 C17 12.99 17 13.98 17 15 C17.99 15.33 18.98 15.66 20 16 C19.67 16.66 19.34 17.32 19 18 C16.78904188 16.92177933 14.58132694 15.83762596 12.375 14.75 C11.75753906 14.44964844 11.14007813 14.14929687 10.50390625 13.83984375 C6.44059125 11.82957212 2.7226636 9.58868299 -1 7 C-0.67 4.69 -0.34 2.38 0 0 Z " fill="#272727" transform="translate(5,11)"/>
<path d="M0 0 C3.94637474 0.56376782 6.83196811 1.5359752 10 4 C10.9375 6.5 10.9375 6.5 11 9 C10.01 10.485 10.01 10.485 9 12 C3.14116461 11.51176372 -0.83245377 9.81041988 -6 7 C-4.02 4.69 -2.04 2.38 0 0 Z " fill="#2A2A2A" transform="translate(54,202)"/>
<path d="M0 0 C2.00720923 0.28674418 4.0085944 0.61866701 6 1 C6.80967438 3.91482778 7.21845993 5.46113217 6.0625 8.3125 C5.711875 8.869375 5.36125 9.42625 5 10 C4.34 10 3.68 10 3 10 C2.566875 10.928125 2.566875 10.928125 2.125 11.875 C1 14 1 14 -1 16 C-1.66 14.02 -2.32 12.04 -3 10 C-4.98 10.66 -6.96 11.32 -9 12 C-7.68 9.69 -6.36 7.38 -5 5 C-4.34 5 -3.68 5 -3 5 C-2.690625 4.360625 -2.38125 3.72125 -2.0625 3.0625 C-1 1 -1 1 0 0 Z M-1 7 C0 9 0 9 0 9 Z " fill="#1E1E1E" transform="translate(44,157)"/>
<path d="M0 0 C0.99 0.33 1.98 0.66 3 1 C3 1.66 3 2.32 3 3 C5.475 3.99 5.475 3.99 8 5 C6.515 7.475 6.515 7.475 5 10 C3.88625 9.505 3.88625 9.505 2.75 9 C-0.13883312 7.77217129 -0.13883312 7.77217129 -4 8 C-2.25 2.25 -2.25 2.25 0 0 Z " fill="#272727" transform="translate(79,156)"/>
<path d="M0 0 C2.0625 1.75 2.0625 1.75 4 4 C3.75 6.25 3.75 6.25 3 8 C2.34 8 1.68 8 1 8 C-0.63676257 9.9600281 -0.63676257 9.9600281 -2 12 C-2.66 10.68 -3.32 9.36 -4 8 C-3.01 7.4121875 -3.01 7.4121875 -2 6.8125 C0.29166667 5.14583333 0.29166667 5.14583333 0.25 2.3125 C0.1675 1.549375 0.085 0.78625 0 0 Z " fill="#242424" transform="translate(71,56)"/>
<path d="M0 0 C2.35953094 2.35953094 2.49141413 3.77895617 3 7 C2.01 7.66 1.02 8.32 0 9 C0 7.68 0 6.36 0 5 C-1.65 4.67 -3.3 4.34 -5 4 C-3.35 2.68 -1.7 1.36 0 0 Z " fill="#030303" transform="translate(40,166)"/>
<path d="M0 0 C1.32 0.33 2.64 0.66 4 1 C1.69 3.97 -0.62 6.94 -3 10 C-3.66 9.34 -4.32 8.68 -5 8 C-4.34 8 -3.68 8 -3 8 C-3.33 6.68 -3.66 5.36 -4 4 C-2.68 3.67 -1.36 3.34 0 3 C0 2.01 0 1.02 0 0 Z " fill="#262626" transform="translate(79,166)"/>
<path d="M0 0 C0.99 0.33 1.98 0.66 3 1 C1.27072741 6.18781778 -2.21904213 8.60952106 -7 11 C-4.69 7.37 -2.38 3.74 0 0 Z " fill="#4F4F4F" transform="translate(33,170)"/>
<path d="M0 0 C0.66 0 1.32 0 2 0 C2.80967438 2.91482778 3.21845993 4.46113217 2.0625 7.3125 C1.5365625 8.1478125 1.5365625 8.1478125 1 9 C0.34 9 -0.32 9 -1 9 C-2.0326802 6.21176345 -2.04509293 5.1322726 -1.0625 2.25 C-0.711875 1.5075 -0.36125 0.765 0 0 Z " fill="#4C4C4C" transform="translate(48,158)"/>
<path d="M0 0 C2.0625 0.4375 2.0625 0.4375 4 1 C3.01 1 2.02 1 1 1 C1.33 2.32 1.66 3.64 2 5 C-2.75 7 -2.75 7 -5 7 C-5 6.34 -5 5.68 -5 5 C-4.34 5 -3.68 5 -3 5 C-2.5359375 4.0409375 -2.5359375 4.0409375 -2.0625 3.0625 C-1 1 -1 1 0 0 Z " fill="#545454" transform="translate(44,157)"/>
<path d="M0 0 C0.99 0.66 1.98 1.32 3 2 C1.35 3.65 -0.3 5.3 -2 7 C-2.66 6.34 -3.32 5.68 -4 5 C-3.8125 2.9375 -3.8125 2.9375 -3 1 C-2.01 0.67 -1.02 0.34 0 0 Z " fill="#050505" transform="translate(51,201)"/>
<path d="M0 0 C0.66 0.66 1.32 1.32 2 2 C1.67 2.99 1.34 3.98 1 5 C1.66 5.33 2.32 5.66 3 6 C2.01 6.99 1.02 7.98 0 9 C-2 6 -2 6 -1.6875 3.375 C-1 1 -1 1 0 0 Z " fill="#0F0F0F" transform="translate(72,63)"/>
<path d="M0 0 C2.125 0.375 2.125 0.375 4 1 C2.84826645 3.46800047 1.95216435 5.04783565 0 7 C-0.66 5.35 -1.32 3.7 -2 2 C-1.34 1.34 -0.68 0.68 0 0 Z " fill="#272727" transform="translate(43,166)"/>
<path d="M0 0 C1.98 0 3.96 0 6 0 C6 0.99 6 1.98 6 3 C4.35 3.33 2.7 3.66 1 4 C0.67 2.68 0.34 1.36 0 0 Z " fill="#434343" transform="translate(5,11)"/>
</svg>
